<mxfile host="app.diagrams.net" agent="Mozilla/5.0 (Windows NT 10.0; Win64; x64) AppleWebKit/537.36 (KHTML, like Gecko) Chrome/134.0.0.0 Safari/537.36 Edg/134.0.0.0" version="26.2.4">
  <diagram id="C5RBs43oDa-KdzZeNtuy" name="Page-1">
    <mxGraphModel dx="1207" dy="807" grid="1" gridSize="10" guides="1" tooltips="1" connect="1" arrows="1" fold="1" page="1" pageScale="1" pageWidth="827" pageHeight="1169" math="0" shadow="0">
      <root>
        <mxCell id="WIyWlLk6GJQsqaUBKTNV-0" />
        <mxCell id="WIyWlLk6GJQsqaUBKTNV-1" parent="WIyWlLk6GJQsqaUBKTNV-0" />
        <mxCell id="V3gvqy_vZCnXrgA3QBMu-2" value="" style="edgeStyle=orthogonalEdgeStyle;rounded=0;orthogonalLoop=1;jettySize=auto;html=1;" edge="1" parent="WIyWlLk6GJQsqaUBKTNV-1" source="V3gvqy_vZCnXrgA3QBMu-0" target="V3gvqy_vZCnXrgA3QBMu-1">
          <mxGeometry relative="1" as="geometry" />
        </mxCell>
        <mxCell id="V3gvqy_vZCnXrgA3QBMu-0" value="开始" style="strokeWidth=2;html=1;shape=mxgraph.flowchart.start_1;whiteSpace=wrap;fillColor=#ffe6cc;strokeColor=#d79b00;" vertex="1" parent="WIyWlLk6GJQsqaUBKTNV-1">
          <mxGeometry x="364" y="110" width="100" height="60" as="geometry" />
        </mxCell>
        <mxCell id="V3gvqy_vZCnXrgA3QBMu-7" value="" style="edgeStyle=orthogonalEdgeStyle;rounded=0;orthogonalLoop=1;jettySize=auto;html=1;" edge="1" parent="WIyWlLk6GJQsqaUBKTNV-1" source="V3gvqy_vZCnXrgA3QBMu-1" target="V3gvqy_vZCnXrgA3QBMu-6">
          <mxGeometry relative="1" as="geometry" />
        </mxCell>
        <mxCell id="V3gvqy_vZCnXrgA3QBMu-1" value="点击视频/UP主" style="whiteSpace=wrap;html=1;strokeWidth=2;fillColor=#f5f5f5;fontColor=#333333;strokeColor=#666666;" vertex="1" parent="WIyWlLk6GJQsqaUBKTNV-1">
          <mxGeometry x="354" y="210" width="120" height="60" as="geometry" />
        </mxCell>
        <mxCell id="V3gvqy_vZCnXrgA3QBMu-10" value="是" style="edgeStyle=orthogonalEdgeStyle;rounded=0;orthogonalLoop=1;jettySize=auto;html=1;" edge="1" parent="WIyWlLk6GJQsqaUBKTNV-1" source="V3gvqy_vZCnXrgA3QBMu-6" target="V3gvqy_vZCnXrgA3QBMu-9">
          <mxGeometry relative="1" as="geometry" />
        </mxCell>
        <mxCell id="V3gvqy_vZCnXrgA3QBMu-19" value="" style="edgeStyle=orthogonalEdgeStyle;rounded=0;orthogonalLoop=1;jettySize=auto;html=1;exitX=1;exitY=0.5;exitDx=0;exitDy=0;" edge="1" parent="WIyWlLk6GJQsqaUBKTNV-1" source="V3gvqy_vZCnXrgA3QBMu-6" target="V3gvqy_vZCnXrgA3QBMu-17">
          <mxGeometry relative="1" as="geometry" />
        </mxCell>
        <mxCell id="V3gvqy_vZCnXrgA3QBMu-6" value="判断是否为“空置”状态" style="rhombus;whiteSpace=wrap;html=1;strokeWidth=2;fillColor=#dae8fc;strokeColor=#6c8ebf;" vertex="1" parent="WIyWlLk6GJQsqaUBKTNV-1">
          <mxGeometry x="326" y="300" width="176" height="80" as="geometry" />
        </mxCell>
        <mxCell id="V3gvqy_vZCnXrgA3QBMu-41" style="edgeStyle=orthogonalEdgeStyle;rounded=0;orthogonalLoop=1;jettySize=auto;html=1;exitX=0.5;exitY=1;exitDx=0;exitDy=0;" edge="1" parent="WIyWlLk6GJQsqaUBKTNV-1" source="V3gvqy_vZCnXrgA3QBMu-9" target="V3gvqy_vZCnXrgA3QBMu-40">
          <mxGeometry relative="1" as="geometry">
            <Array as="points">
              <mxPoint x="250" y="830" />
            </Array>
          </mxGeometry>
        </mxCell>
        <mxCell id="V3gvqy_vZCnXrgA3QBMu-9" value="将状态置为“空置”" style="whiteSpace=wrap;html=1;strokeWidth=2;fillColor=#f5f5f5;fontColor=#333333;strokeColor=#666666;" vertex="1" parent="WIyWlLk6GJQsqaUBKTNV-1">
          <mxGeometry x="190" y="450" width="120" height="60" as="geometry" />
        </mxCell>
        <mxCell id="V3gvqy_vZCnXrgA3QBMu-22" value="" style="edgeStyle=orthogonalEdgeStyle;rounded=0;orthogonalLoop=1;jettySize=auto;html=1;exitX=0;exitY=0.5;exitDx=0;exitDy=0;" edge="1" parent="WIyWlLk6GJQsqaUBKTNV-1" source="V3gvqy_vZCnXrgA3QBMu-17" target="V3gvqy_vZCnXrgA3QBMu-21">
          <mxGeometry relative="1" as="geometry" />
        </mxCell>
        <mxCell id="V3gvqy_vZCnXrgA3QBMu-27" value="Up主" style="edgeLabel;html=1;align=center;verticalAlign=middle;resizable=0;points=[];" vertex="1" connectable="0" parent="V3gvqy_vZCnXrgA3QBMu-22">
          <mxGeometry x="-0.152" relative="1" as="geometry">
            <mxPoint as="offset" />
          </mxGeometry>
        </mxCell>
        <mxCell id="V3gvqy_vZCnXrgA3QBMu-24" value="视频" style="edgeStyle=orthogonalEdgeStyle;rounded=0;orthogonalLoop=1;jettySize=auto;html=1;exitX=1;exitY=0.5;exitDx=0;exitDy=0;" edge="1" parent="WIyWlLk6GJQsqaUBKTNV-1" source="V3gvqy_vZCnXrgA3QBMu-17" target="V3gvqy_vZCnXrgA3QBMu-23">
          <mxGeometry relative="1" as="geometry" />
        </mxCell>
        <mxCell id="V3gvqy_vZCnXrgA3QBMu-17" value="判断“Up主”还是“视频”" style="rhombus;whiteSpace=wrap;html=1;strokeWidth=2;fillColor=#dae8fc;strokeColor=#6c8ebf;" vertex="1" parent="WIyWlLk6GJQsqaUBKTNV-1">
          <mxGeometry x="440" y="430" width="176" height="80" as="geometry" />
        </mxCell>
        <mxCell id="V3gvqy_vZCnXrgA3QBMu-29" value="否" style="edgeStyle=orthogonalEdgeStyle;rounded=0;orthogonalLoop=1;jettySize=auto;html=1;" edge="1" parent="WIyWlLk6GJQsqaUBKTNV-1" source="V3gvqy_vZCnXrgA3QBMu-21" target="V3gvqy_vZCnXrgA3QBMu-28">
          <mxGeometry relative="1" as="geometry" />
        </mxCell>
        <mxCell id="V3gvqy_vZCnXrgA3QBMu-37" style="edgeStyle=orthogonalEdgeStyle;rounded=0;orthogonalLoop=1;jettySize=auto;html=1;entryX=0.5;entryY=0;entryDx=0;entryDy=0;exitX=1;exitY=0.5;exitDx=0;exitDy=0;" edge="1" parent="WIyWlLk6GJQsqaUBKTNV-1" source="V3gvqy_vZCnXrgA3QBMu-21" target="V3gvqy_vZCnXrgA3QBMu-36">
          <mxGeometry relative="1" as="geometry" />
        </mxCell>
        <mxCell id="V3gvqy_vZCnXrgA3QBMu-21" value="判断是否超出上限" style="rhombus;whiteSpace=wrap;html=1;strokeWidth=2;fillColor=#dae8fc;strokeColor=#6c8ebf;" vertex="1" parent="WIyWlLk6GJQsqaUBKTNV-1">
          <mxGeometry x="298" y="530" width="176" height="80" as="geometry" />
        </mxCell>
        <mxCell id="V3gvqy_vZCnXrgA3QBMu-31" value="否" style="edgeStyle=orthogonalEdgeStyle;rounded=0;orthogonalLoop=1;jettySize=auto;html=1;" edge="1" parent="WIyWlLk6GJQsqaUBKTNV-1" source="V3gvqy_vZCnXrgA3QBMu-23" target="V3gvqy_vZCnXrgA3QBMu-30">
          <mxGeometry relative="1" as="geometry" />
        </mxCell>
        <mxCell id="V3gvqy_vZCnXrgA3QBMu-38" value="是" style="edgeStyle=orthogonalEdgeStyle;rounded=0;orthogonalLoop=1;jettySize=auto;html=1;exitX=0;exitY=0.5;exitDx=0;exitDy=0;" edge="1" parent="WIyWlLk6GJQsqaUBKTNV-1" source="V3gvqy_vZCnXrgA3QBMu-23" target="V3gvqy_vZCnXrgA3QBMu-36">
          <mxGeometry relative="1" as="geometry" />
        </mxCell>
        <mxCell id="V3gvqy_vZCnXrgA3QBMu-23" value="判断是否超出上限" style="rhombus;whiteSpace=wrap;html=1;strokeWidth=2;fillColor=#dae8fc;strokeColor=#6c8ebf;" vertex="1" parent="WIyWlLk6GJQsqaUBKTNV-1">
          <mxGeometry x="590" y="530" width="166" height="80" as="geometry" />
        </mxCell>
        <mxCell id="V3gvqy_vZCnXrgA3QBMu-42" value="" style="edgeStyle=orthogonalEdgeStyle;rounded=0;orthogonalLoop=1;jettySize=auto;html=1;" edge="1" parent="WIyWlLk6GJQsqaUBKTNV-1" source="V3gvqy_vZCnXrgA3QBMu-28" target="V3gvqy_vZCnXrgA3QBMu-40">
          <mxGeometry relative="1" as="geometry" />
        </mxCell>
        <mxCell id="V3gvqy_vZCnXrgA3QBMu-28" value="将状态置为“已选择”" style="whiteSpace=wrap;html=1;strokeWidth=2;fillColor=#f5f5f5;fontColor=#333333;strokeColor=#666666;" vertex="1" parent="WIyWlLk6GJQsqaUBKTNV-1">
          <mxGeometry x="326" y="650" width="120" height="60" as="geometry" />
        </mxCell>
        <mxCell id="V3gvqy_vZCnXrgA3QBMu-44" style="edgeStyle=orthogonalEdgeStyle;rounded=0;orthogonalLoop=1;jettySize=auto;html=1;exitX=0.5;exitY=1;exitDx=0;exitDy=0;" edge="1" parent="WIyWlLk6GJQsqaUBKTNV-1" source="V3gvqy_vZCnXrgA3QBMu-30" target="V3gvqy_vZCnXrgA3QBMu-40">
          <mxGeometry relative="1" as="geometry" />
        </mxCell>
        <mxCell id="V3gvqy_vZCnXrgA3QBMu-30" value="将状态置为“已选择”" style="whiteSpace=wrap;html=1;strokeWidth=2;fillColor=#f5f5f5;fontColor=#333333;strokeColor=#666666;" vertex="1" parent="WIyWlLk6GJQsqaUBKTNV-1">
          <mxGeometry x="613" y="650" width="120" height="60" as="geometry" />
        </mxCell>
        <mxCell id="V3gvqy_vZCnXrgA3QBMu-36" value="弹窗提示" style="whiteSpace=wrap;html=1;strokeWidth=2;fillColor=#f5f5f5;fontColor=#333333;strokeColor=#666666;" vertex="1" parent="WIyWlLk6GJQsqaUBKTNV-1">
          <mxGeometry x="468" y="650" width="120" height="60" as="geometry" />
        </mxCell>
        <mxCell id="V3gvqy_vZCnXrgA3QBMu-40" value="结束" style="strokeWidth=2;html=1;shape=mxgraph.flowchart.start_1;whiteSpace=wrap;fillColor=#ffe6cc;strokeColor=#d79b00;" vertex="1" parent="WIyWlLk6GJQsqaUBKTNV-1">
          <mxGeometry x="478" y="810" width="100" height="60" as="geometry" />
        </mxCell>
        <mxCell id="V3gvqy_vZCnXrgA3QBMu-43" style="edgeStyle=orthogonalEdgeStyle;rounded=0;orthogonalLoop=1;jettySize=auto;html=1;entryX=0.5;entryY=0;entryDx=0;entryDy=0;entryPerimeter=0;" edge="1" parent="WIyWlLk6GJQsqaUBKTNV-1" source="V3gvqy_vZCnXrgA3QBMu-36" target="V3gvqy_vZCnXrgA3QBMu-40">
          <mxGeometry relative="1" as="geometry" />
        </mxCell>
        <mxCell id="V3gvqy_vZCnXrgA3QBMu-46" style="edgeStyle=orthogonalEdgeStyle;rounded=0;orthogonalLoop=1;jettySize=auto;html=1;exitX=0.5;exitY=1;exitDx=0;exitDy=0;entryX=0.5;entryY=0;entryDx=0;entryDy=0;entryPerimeter=0;" edge="1" parent="WIyWlLk6GJQsqaUBKTNV-1" source="V3gvqy_vZCnXrgA3QBMu-28" target="V3gvqy_vZCnXrgA3QBMu-40">
          <mxGeometry relative="1" as="geometry" />
        </mxCell>
      </root>
    </mxGraphModel>
  </diagram>
</mxfile>
